<?xml version="1.0" encoding="UTF-8" standalone="no"?>
<!-- Created with Inkscape (http://www.inkscape.org/) -->

<svg
   xmlns:dc="http://purl.org/dc/elements/1.1/"
   xmlns:cc="http://creativecommons.org/ns#"
   xmlns:rdf="http://www.w3.org/1999/02/22-rdf-syntax-ns#"
   xmlns:svg="http://www.w3.org/2000/svg"
   xmlns="http://www.w3.org/2000/svg"
   xmlns:sodipodi="http://sodipodi.sourceforge.net/DTD/sodipodi-0.dtd"
   xmlns:inkscape="http://www.inkscape.org/namespaces/inkscape"
   version="1.1"
   id="svg2"
   width="720"
   height="720"
   viewBox="0 0 720 720"
   sodipodi:docname="photo_camera_rangefinder_camera-1173292.svg"
   inkscape:version="0.92.2 (unknown)">
  <metadata
     id="metadata8">
    <rdf:RDF>
      <cc:Work
         rdf:about="">
        <dc:format>image/svg+xml</dc:format>
        <dc:type
           rdf:resource="http://purl.org/dc/dcmitype/StillImage" />
        <dc:title></dc:title>
      </cc:Work>
    </rdf:RDF>
  </metadata>
  <defs
     id="defs6" />
  <sodipodi:namedview
     pagecolor="#ffffff"
     bordercolor="#666666"
     borderopacity="1"
     objecttolerance="10"
     gridtolerance="10"
     guidetolerance="10"
     inkscape:pageopacity="0"
     inkscape:pageshadow="2"
     inkscape:window-width="1280"
     inkscape:window-height="776"
     id="namedview4"
     showgrid="false"
     inkscape:zoom="0.54235113"
     inkscape:cx="622.12988"
     inkscape:cy="379.63025"
     inkscape:window-x="0"
     inkscape:window-y="24"
     inkscape:window-maximized="1"
     inkscape:current-layer="svg2" />
  <g
     id="g816"
     transform="translate(-245.71942,-14.131755)">
    <circle
       r="280.6481"
       cy="374.13174"
       cx="605.71942"
       id="path812"
       style="color:#000000;clip-rule:nonzero;display:inline;overflow:visible;visibility:visible;opacity:1;isolation:auto;mix-blend-mode:normal;color-interpolation:sRGB;color-interpolation-filters:linearRGB;solid-color:#000000;solid-opacity:1;vector-effect:none;fill:#ffffff;fill-opacity:1;fill-rule:nonzero;stroke:#fffff5;stroke-width:53.78079987;stroke-linecap:butt;stroke-linejoin:miter;stroke-miterlimit:4;stroke-dasharray:none;stroke-dashoffset:0;stroke-opacity:1;marker:none;marker-start:none;marker-mid:none;marker-end:none;paint-order:stroke fill markers;color-rendering:auto;image-rendering:auto;shape-rendering:auto;text-rendering:auto;enable-background:accumulate" />
    <path
       inkscape:connector-curvature="0"
       id="path817"
       d="m 573.96742,680.92968 c -13.38258,-1.1097 -32.06,-5.08552 -41.29298,-8.78994 C 528.37038,670.41288 523.57346,669 522.01462,669 517.5054,669 502.16098,663.59147 487.76794,656.92889 480.47057,653.55092 472.025,649.8724 469,648.7544 c -3.025,-1.118 -8.12168,-3.98728 -11.32596,-6.37618 -3.20428,-2.3889 -7.70428,-4.88104 -10,-5.5381 -2.29572,-0.65705 -5.12952,-1.90237 -6.29732,-2.76738 C 343.53308,561.59879 295.92566,470.13385 298.26296,359.11783 301.62018,199.65826 435.94356,66.568944 593.5,66.593203 c 45.02961,0.0069 65.571,3.17935 105.22324,16.250701 28.14027,9.276434 78.00931,33.756876 74.96585,36.800336 -0.27807,0.27807 -2.23437,-0.62018 -4.34733,-1.9961 C 765.53108,115.16669 744.3397,103.75198 740.5,102.11256 739.4,101.64289 735.125,99.820704 731,98.063245 707.84985,88.200113 671.80308,79.4846 644.03404,77.036316 c -11.58729,-1.021604 -16.62159,0.253499 -9.88905,2.504732 6.94409,2.321974 9.68659,10.571232 5.87731,17.678527 -2.17562,4.059225 -0.84328,6.623675 1.66155,3.198115 1.3326,-1.822445 1.40069,-1.810412 1.96492,0.34722 0.61791,2.3629 1.82685,2.89257 2.84436,1.24621 0.37548,-0.60755 1.53945,-0.38065 3.01838,0.58838 1.58412,1.03795 3.41433,1.35606 5.35265,0.93034 1.70291,-0.37403 3.22142,-0.20039 3.59966,0.41161 1.03889,1.68097 6.33144,1.24682 7.3674,-0.60434 0.83593,-1.49372 0.99527,-1.45914 1.56626,0.33988 0.9706,3.05809 5.25247,5.02271 7.66423,3.51654 1.57818,-0.98559 1.93829,-0.94499 1.93829,0.21854 0,1.26165 3.51155,2.61552 8,3.08439 0.825,0.0862 3.21765,0.72959 5.317,1.42978 2.09935,0.7002 4.08783,1.00226 4.41885,0.67124 0.33102,-0.33101 1.31337,0.002 2.183,0.74077 0.86963,0.73844 6.08115,3.03622 11.58115,5.10617 13.79309,5.19112 17.91722,6.89439 18.5,7.64056 0.275,0.35209 3.425,2.08458 7,3.84996 3.575,1.76538 7.175,3.77609 8,4.46823 0.825,0.69214 3.60568,2.45989 6.17928,3.92834 2.57361,1.46845 5.27361,3.23209 6,3.9192 1.47979,1.39975 10.0515,5.73322 11.43025,5.7786 1.56164,0.0514 7.39047,5.88585 7.39047,7.39758 0,0.80029 0.45,1.73319 1,2.07311 0.55,0.33992 1,0.15879 1,-0.40251 0,-1.80406 8.9354,4.32581 8.96839,6.15251 0.0174,0.9625 0.62561,1.75 1.35161,1.75 1.928,0 9.30545,6.58499 13.92519,12.4294 2.20444,2.78883 4.31832,5.0706 4.6975,5.0706 0.37918,0 1.8363,1.2375 3.23804,2.75 1.40174,1.5125 2.94701,2.76646 3.43394,2.78659 0.48693,0.0201 3.10893,2.91847 5.82665,6.44077 2.71773,3.5223 5.30523,6.17928 5.75,5.9044 0.44478,-0.27489 0.80868,0.31859 0.80868,1.31885 0,1.00025 2.26678,4.25854 5.03729,7.24065 2.77051,2.98211 4.82392,5.97804 4.56314,6.65762 -0.26078,0.67958 0.17244,1.48372 0.96271,1.78698 0.79027,0.30325 1.43686,1.1378 1.43686,1.85455 0,0.71675 1.99368,3.47471 4.4304,6.1288 2.43672,2.65409 5.17617,6.69428 6.08767,8.9782 0.91151,2.28393 2.51783,4.95762 3.56961,5.94155 1.05177,0.98392 1.91232,2.52486 1.91232,3.42431 0,2.84151 -4.71702,-2.47151 -10.09088,-11.36588 -4.46657,-7.39267 -20.84859,-30.67807 -24.16449,-34.34739 -4.24943,-4.70235 -37.74564,-36.66565 -38.07691,-36.33438 -0.21823,0.21823 -5.52025,-3.19813 -11.78225,-7.59191 -25.8314,-18.12478 -63.29875,-35.15329 -91.38547,-41.53373 -5.86335,-1.33197 -1.01092,1.20818 7.5,3.9261 16.46407,5.25772 20.97815,7.53392 14.94098,7.53392 -1.13246,0 -1.806,0.40939 -1.49675,0.90976 1.86936,3.02469 -0.61502,3.83313 -5.75543,1.87287 -2.85384,-1.08829 -8.1138,-2.62546 -11.6888,-3.41593 -3.575,-0.79048 -7.4,-1.67421 -8.5,-1.96386 -1.1,-0.28965 -4.88163,-1.05202 -8.40362,-1.69416 -4.66159,-0.84992 -6.52957,-1.6492 -6.86663,-2.93811 -0.56716,-2.16882 -0.68645,-2.17266 -3.81488,-0.12284 -2.18715,1.43308 -3.19219,1.48641 -7.71481,0.40935 -2.86003,-0.68111 -6.77506,-1.0647 -8.70006,-0.85243 -4.39983,0.48517 -3.73704,0.66828 15.5,4.28224 21.91132,4.11637 50.04466,12.30178 48.29498,14.05146 -0.21498,0.21498 -5.89836,-1.14947 -12.62973,-3.03212 -14.62351,-4.08995 -36.13832,-8.64091 -37.33978,-7.89837 -1.73943,1.07503 0.26386,2.14633 5.25059,2.80784 2.81652,0.37363 6.76412,1.29252 8.77244,2.04198 2.00833,0.74946 9.0515,3.00193 15.6515,5.00549 39.73644,12.06279 71.14585,29.40949 99.37448,54.88229 4.05596,3.66 7.99346,6.65454 8.75,6.65454 0.75654,0 1.37552,0.69364 1.37552,1.54142 0,0.84778 4.43689,6.20675 9.85976,11.90881 11.87095,12.48212 28.2485,36.39022 37.66394,54.98216 3.55542,7.02062 7.59208,14.10493 8.97035,15.74291 2.45506,2.91767 3.48106,6.54538 1.50595,5.3247 -3.56894,-2.20573 -0.57073,4.24664 3.38486,7.28447 6.16257,4.73276 8.34737,2.08478 4.21318,-5.1064 -1.32108,-2.29794 -2.72304,-5.75307 -3.11547,-7.67807 -0.39243,-1.925 -1.05201,-3.95 -1.46573,-4.5 -0.41371,-0.55 -1.52115,-3.35721 -2.46098,-6.23824 -0.93983,-2.88103 -2.12437,-5.49509 -2.63232,-5.80901 C 843.41559,262.13882 843,260.64338 843,259.12954 c 0,-1.51383 -0.91753,-3.73727 -2.03896,-4.94098 C 839.30342,252.40931 839.21403,252 840.48307,252 c 1.74189,0 7.27781,8.12554 8.17558,12 0.31861,1.375 1.13252,3.4 1.80869,4.5 2.70048,4.39313 3.79048,9.47519 2.42121,11.2887 -1.09523,1.45057 -1.07852,1.52085 0.10968,0.4613 2.50695,-2.23552 3.27131,-1.33372 2.75466,3.25 -0.44596,3.95655 -0.27373,4.5 1.42618,4.5 7.07471,0 16.36223,54.3372 16.92146,99 0.0723,5.775 0.33727,9.7125 0.5888,8.75 0.67366,-2.57787 2.17752,-2.12868 2.93156,0.87563 3.02102,12.03672 3.8668,-34.411 1.00993,-55.46248 -3.797,-27.97907 -11.75337,-56.02364 -23.11551,-81.47744 -3.14604,-7.04785 -5.50257,-13.03178 -5.23674,-13.29761 0.89688,-0.89688 3.72143,2.73793 3.72143,4.78897 0,1.11882 1.12513,3.37136 2.50029,5.00565 1.37516,1.63428 2.7792,4.17424 3.12009,5.64435 0.57132,2.46383 4.80675,12.23349 7.87849,18.17293 2.03123,3.92754 6.49153,19.20651 5.89066,20.17874 -0.29778,0.48183 0.44,2.9034 1.63953,5.38128 1.21916,2.51847 2.27383,6.80605 2.39157,9.72261 0.11584,2.86955 0.76751,6.54707 1.44814,8.17225 2.22325,5.30857 3.19639,16.61006 3.74955,43.54512 0.65927,32.10157 0.35048,34.16987 -5.27975,35.36417 -4.89401,1.03812 -6.31434,5.2358 -6.64399,19.63583 -0.13654,5.96454 -0.6179,8.83118 -1.61373,9.61027 -1.49175,1.16707 -1.8579,6.49594 -0.67951,9.88973 0.42671,1.22896 0.0918,2.77104 -0.86879,4 -1.4988,1.91758 -1.53939,1.87636 -0.98477,-1 1.08898,-5.64767 -1.42751,-0.0972 -5.99172,13.21561 -2.41068,7.03142 -6.89698,18.60917 -9.96956,25.72835 C 844.42942,497.70996 844.34799,498 846.5,498 c 2.01759,0 1.91365,0.49736 -1,4.78519 -1.375,2.02349 -2.5,4.44806 -2.5,5.38793 0,0.93986 -0.494,2.01415 -1.09777,2.38731 -0.60378,0.37315 -2.40378,2.73781 -4,5.25479 -1.84245,2.90524 -2.90223,3.90051 -2.90223,2.72557 0,-1.78742 -0.0684,-1.78882 -2,-0.0408 -2.3581,2.13405 -2.6279,3.67818 -0.5,2.86163 0.825,-0.31659 1.5,-0.17759 1.5,0.30887 0,1.68187 -3.11871,5.3295 -4.5567,5.3295 -0.84536,0 -1.4433,0.96667 -1.4433,2.33333 0,3.00972 -0.9708,3.93579 -2.65799,2.53555 C 824.27026,530.97941 824,531.35677 824,533.7427 c 0,2.80461 -2.97379,7.84436 -5.60241,9.49453 -0.6459,0.40547 -1.45816,1.86797 -1.80503,3.25 -0.34686,1.38202 -1.26443,2.51277 -2.03903,2.51277 -0.7746,0 -2.34165,1.18647 -3.48232,2.6366 -1.14067,1.45013 -3.06756,2.68763 -4.28196,2.75 -2.33193,0.11976 -3.96788,4.13797 -4.03727,9.91634 -0.0221,1.84106 -0.46801,2.63627 -1.29936,2.31725 -0.71788,-0.27547 -1.78065,0.75753 -2.45548,2.38672 -1.09561,2.64503 -7.70144,9.3844 -15.99452,16.31786 -2.35242,1.96675 -3.00754,3.05416 -2.15679,3.57995 0.67205,0.41535 0.93352,1.5067 0.58105,2.42523 C 780.73111,593.1431 779,593.62105 779,592 c 0,-3.26437 -3.0078,-0.56806 -3.06768,2.75 -0.0619,3.429 -0.16057,3.5574 -1.15281,1.5 -1.17213,-2.43038 -2.42601,-2.7623 -4.77951,-1.2652 -1.23636,0.78647 -1.2803,1.30867 -0.25,2.97112 1.74733,2.81941 1.56654,3.28386 -0.78777,2.02386 C 766.79356,598.81915 763,599.51115 763,601.06739 763,601.58032 762.37498,602 761.61106,602 c -0.76392,0 -5.05986,2.42908 -9.54653,5.39795 -4.48667,2.96888 -9.48665,5.94847 -11.11106,6.62132 C 739.32906,614.69213 738,615.63805 738,616.12132 738,616.60459 737.37314,617 736.60699,617 c -0.76616,0 -1.65203,0.675 -1.96862,1.5 -0.31658,0.825 -1.60222,1.51431 -2.85699,1.5318 -2.10966,0.0294 -2.14966,0.1318 -0.53138,1.36025 2.80099,2.12625 2.09518,2.60643 -3.63689,2.47429 -6.4837,-0.14948 -7.60844,0.43184 -7.62842,3.94268 -0.008,1.48004 -0.34592,2.23935 -0.75,1.68736 -1.03922,-1.41962 -5.91426,-1.82387 -6.6982,-0.55543 -0.35999,0.58248 -1.53407,1.05905 -2.60908,1.05905 -1.075,0 -2.73594,0.3975 -3.69098,0.88333 -2.166,1.10185 -6.21933,2.77276 -8.35415,3.44385 -2.49737,0.78505 -3.00241,5.70464 -0.86463,8.42238 1.14462,1.45516 2.07173,1.91483 2.49165,1.23539 0.46636,-0.75458 1.13514,-0.695 2.20978,0.19687 1.35235,1.12235 1.45416,0.88342 0.83152,-1.95144 -0.96011,-4.37136 0.96536,-4.21097 2.56533,0.21368 1.06857,2.95508 1.4103,3.21854 2.40689,1.85561 1.34889,-1.84471 4.47718,1.59496 4.47718,4.92284 0,2.29109 -1.71381,2.31148 -2.31067,0.0275 -0.33953,-1.29924 -0.48721,-1.16236 -0.57333,0.53138 -0.0638,1.25477 0.56247,2.54174 1.39172,2.85996 1.90952,0.73274 6.49228,-2.20682 6.49228,-4.1644 0,-0.81232 0.525,-1.47695 1.16667,-1.47695 0.64166,0 0.83589,-0.33078 0.4316,-0.73506 -0.40428,-0.40428 -1.63981,0.38322 -2.74562,1.75 -2.01057,2.48506 -2.01057,2.48506 -1.44127,-0.15052 0.36629,-1.6958 0.0379,-3.07661 -0.92105,-3.87244 -1.87931,-1.55969 -1.91764,-3.61403 -0.0806,-4.31897 1.43706,-0.55146 6.59025,5.80631 6.59025,8.13074 0,0.65794 0.45,1.19625 1,1.19625 0.55,0 1,-1.35 1,-3 0,-1.93728 -0.50749,-3 -1.43261,-3 -0.78794,0 -1.69434,-0.7875 -2.01422,-1.75 -0.52989,-1.59439 -7.5366,-7.25 -8.982,-7.25 -0.3351,0 -0.32227,1.2375 0.0285,2.75 0.61646,2.65805 0.58472,2.68313 -0.94915,0.75 -3.178,-4.00523 -1.0528,-6.66171 3.41522,-4.26897 5.56087,2.97797 8.15369,5.27879 9.97757,8.85388 2.48625,4.87346 8.33189,6.94122 6.55854,2.31992 -0.3859,-1.00562 0.22631,-1.1892 2.46966,-0.74053 1.85547,0.3711 3.63389,0.0748 4.70562,-0.78387 C 738.53759,640.66864 741.85269,639 743.48643,639 744.31889,639 745,638.53588 745,637.96862 c 0,-1.52325 -3.31239,-2.53146 -3.77336,-1.14853 -0.21632,0.64895 -0.83795,1.17991 -1.3814,1.17991 -1.60368,0 -3.54137,-2.41162 -3.07114,-3.8223 0.23915,-0.71745 -0.35373,-1.88105 -1.3175,-2.58578 -1.62927,-1.19135 -1.59368,-1.32281 0.50682,-1.8721 2.73484,-0.71518 4.90561,1.06502 4.26867,3.50065 -0.35656,1.36349 0.1326,1.77953 2.09226,1.77953 1.40669,0 2.83573,0.45 3.17565,1 1.01049,1.63501 3.35437,1.14563 5.6875,-1.1875 1.40789,-1.40789 2.32857,-1.76429 2.58333,-1 C 754.3378,635.51339 756,635.28037 756,633.5 c 0,-0.825 0.675,-1.5 1.5,-1.5 0.825,0 1.5,-0.72378 1.5,-1.60841 0,-1.20551 0.61088,-1.45508 2.43871,-0.99633 2.96454,0.74405 4.02913,-0.65257 2.57235,-3.37459 -1.24248,-2.32161 0.15366,-2.73204 1.94622,-0.57215 1.02839,1.23914 1.77821,1.03124 5.18728,-1.43828 2.19181,-1.58774 4.51843,-3.06639 5.17027,-3.2859 0.86447,-0.2911 0.79233,-0.91664 -0.2666,-2.31172 -1.13958,-1.50133 -1.15034,-1.64382 -0.05,-0.66262 2.06179,1.83856 3.77926,1.52643 4.52472,-0.82232 0.39482,-1.24395 1.22026,-1.85646 2.06499,-1.53231 3.75394,1.44052 10.64347,-5.89825 7.41206,-7.89537 -0.55,-0.33992 -0.98198,-1.37898 -0.95996,-2.30902 0.0271,-1.14527 0.5215,-0.80351 1.53193,1.05902 0.82055,1.5125 1.92753,2.75 2.45997,2.75 1.53614,0 1.12378,-3.70142 -0.60496,-5.43016 -1.81419,-1.81419 -1.56641,-4.69118 0.46222,-5.36671 0.76405,-0.25442 1.1608,-0.0667 0.88165,0.41714 -0.27915,0.48385 0.074,2.45473 0.78472,4.37973 1.07772,2.9189 1.30491,3.1061 1.36835,1.12756 0.0639,-1.9928 0.31612,-2.17324 1.57608,-1.12756 1.03636,0.8601 1.5,0.89795 1.5,0.12244 0,-0.61734 1.11097,-1.12244 2.46881,-1.12244 1.79026,0 5.40411,-2.88592 13.14846,-10.5 5.87381,-5.775 10.95035,-10.50129 11.28119,-10.50288 0.33085,-0.002 1.50154,-1.37289 2.60154,-3.04736 1.1,-1.67448 3.45677,-3.95634 5.23726,-5.07082 1.7805,-1.11447 4.36374,-3.90565 5.74054,-6.20263 1.3768,-2.29697 2.51754,-3.72631 2.53498,-3.17631 0.0174,0.55 0.91168,-0.125 1.98722,-1.5 2.42791,-3.10391 2.61816,-1.44818 0.24341,2.11834 -5.59637,8.4049 -39.9356,43.73975 -46.76226,48.11806 -4.79057,3.07246 -23.24766,18.98524 -25.11793,21.65542 -7.51021,10.72233 -53.19967,29.79847 -92.36322,38.56325 -9.075,2.03097 -18.3,4.54437 -20.5,5.58531 -5.98457,2.83165 -63.00085,4.75767 -85.53258,2.8893 z M 637.2,664.8 c -0.66,-0.66 -1.2,-1.9549 -1.2,-2.87756 0,-0.92265 -0.675,-2.23775 -1.5,-2.92244 -1.26639,-1.05101 -1.5,-0.84921 -1.5,1.29577 0,3.93901 1.02338,5.70423 3.30699,5.70423 1.6279,0 1.82634,-0.26667 0.89301,-1.2 z m 61.22857,-8.37143 c 1.87902,-1.87901 2.00119,-3.59881 0.37143,-5.22857 -1.94521,-1.94521 -2.8,-1.39571 -2.8,1.8 0,1.65 -0.45,3 -1,3 -0.55,0 -1,0.45 -1,1 0,1.53269 2.66881,1.18833 4.42857,-0.57143 z M 626,655.18034 c 0,-1.80737 -4.7566,-4.94862 -6.12606,-4.04564 -1.10188,0.72654 -0.90648,1.29793 0.98684,2.88562 2.40896,2.02008 5.13922,2.63635 5.13922,1.16002 z m 62.46568,-8.15319 c -0.61565,-2.47284 -0.61565,-2.47284 1.58151,-0.5 2.19716,1.97285 2.19716,1.97285 1.47566,-2.3448 -0.64451,-3.85688 -0.49747,-4.37623 1.37782,-4.86663 4.1061,-1.07377 2.50163,-3.63567 -1.84196,-2.9411 -7.56263,1.20932 -9.15842,2.23293 -8.04531,5.16063 1.32707,3.49046 1.34471,6.57943 0.0257,4.49371 -1.25082,-1.97783 -2.38066,-0.68061 -1.58651,1.82154 1.06031,3.34073 7.85134,2.54347 7.01313,-0.82335 z m -156.91211,-3.43786 c 0.77589,-0.7759 1.98125,-1.61429 2.67857,-1.8631 2.03869,-0.72742 0.31839,-1.77049 -3.85824,-2.33937 -3.2871,-0.44772 -3.64117,-0.32764 -2.3375,0.79277 0.84502,0.72622 1.37452,2.10791 1.17667,3.07041 -0.43484,2.11546 0.43782,2.24197 2.3405,0.33929 z M 597,641.46045 C 600.51739,638.51172 606.31143,636 609.59616,636 c 6.55118,0 9.97192,-4.62379 5.91292,-7.99246 -1.73005,-1.43582 -10.90906,-0.46374 -9.96991,1.05583 0.31783,0.51426 -1.02279,1.87944 -2.97916,3.03373 -1.95637,1.15428 -3.31189,2.49534 -3.01228,2.98013 1.11698,1.8073 -1.70859,4.89068 -5.5313,6.03599 -2.17302,0.65105 -3.74022,1.52467 -3.48269,1.94138 0.60912,0.98557 4.54712,0.0147 6.46626,-1.59415 z m 25.46342,-2.66062 c 1.68057,-4.20017 1.68057,-4.20017 3.79374,-0.75 1.16224,1.89759 2.28562,3.66845 2.4964,3.93523 0.21077,0.26678 1.20274,-0.60139 2.20436,-1.92928 1.6769,-2.2231 2.64175,-2.44721 12.18161,-2.82936 5.69826,-0.22827 10.51047,-0.8226 10.6938,-1.32073 0.18334,-0.49813 0.98496,-0.90569 1.78139,-0.90569 0.79643,0 1.70707,-0.675 2.02365,-1.5 0.79375,-2.06847 1.9806,-1.88103 4.58591,0.72428 3.03836,3.03836 4.66471,3.06621 5.41102,0.0927 0.40856,-1.62782 0.88892,-2.08677 1.36978,-1.30872 0.55231,0.89366 1.2646,0.91782 2.802,0.095 C 672.94087,632.49646 675.0231,632 676.43426,632 678.03358,632 679,631.44218 679,630.51905 c 0,-0.81452 1.09244,-1.75513 2.42764,-2.09025 1.33521,-0.33511 2.66817,-1.2361 2.96215,-2.00219 0.29578,-0.77079 1.22135,-1.12932 2.07236,-0.80276 0.87189,0.33457 1.53785,0.0557 1.53785,-0.64409 0,-0.88428 1.4697,-1.093 5.18362,-0.73614 4.57024,0.43914 4.96178,0.33587 3.30887,-0.87277 -1.79212,-1.31043 -1.77557,-1.37085 0.3754,-1.37085 1.24545,0 1.97419,-0.4465 1.63211,-1 -0.33992,-0.55 -1.91492,-1 -3.5,-1 -1.58508,0 -3.16008,0.45 -3.5,1 -1.15821,1.87403 -2.5,1.00639 -2.5,-1.61658 0,-2.91199 0.41787,-2.91727 -10.5,0.13259 -7.51495,2.09927 -7.87194,2.33091 -6.37393,4.1359 1.04353,1.25737 0.82078,1.37286 -1.51652,0.78623 -2.13489,-0.53582 -3.33243,-0.13402 -5.42463,1.82008 -4.17228,3.8969 -9.44374,5.42358 -12.88552,3.73181 -4.15101,-2.0404 -10.46083,-2.14202 -12.61045,-0.20309 -1.40181,1.26441 -1.98608,1.35032 -2.58565,0.3802 -0.54631,-0.88394 -3.25455,-1.16695 -9.18895,-0.96024 C 619.5,629.5 619.5,629.5 619.20431,636.25 c -0.3385,7.72716 0.82373,8.63644 3.25911,2.54983 z m -93.86841,-7.95682 c 1.88914,-2.13905 1.88617,-2.15228 -0.3581,-1.5902 -1.5984,0.40032 -2.56653,-2e-4 -3.29624,-1.36367 -1.32221,-2.47057 -0.27475,-4.41129 1.55933,-2.88914 0.96076,0.79736 1.51024,0.79245 2.01111,-0.018 0.37904,-0.6133 0.5316,-1.21554 0.33903,-1.33832 -0.19258,-0.12277 -2.0435,-1.09832 -4.11317,-2.16789 -2.06967,-1.06956 -4.86253,-2.96417 -6.20636,-4.21024 C 517.18678,616.01951 515.49278,615 514.76615,615 c -0.72663,0 -2.20877,-0.61495 -3.29364,-1.36656 -4.5751,-3.16964 -14.26865,-5.86749 -18.65956,-5.19321 -2.37212,0.36426 -5.77545,0.75173 -7.56295,0.86103 -3.49696,0.21384 -3.77698,1.409 -0.73271,3.1273 1.04403,0.58929 2.51189,1.63394 3.26191,2.32144 0.75001,0.6875 1.77278,1.25 2.27281,1.25 0.50004,0 3.50539,1.67246 6.67857,3.71659 6.95726,4.48178 20.71743,10.24333 24.51942,10.26659 1.7703,0.0108 2.75,0.5512 2.75,1.51682 0,2.17922 2.39224,1.83718 4.59501,-0.65699 z m 178.60042,-11.44407 c 2.83895,-1.46808 3.04508,-1.46808 2.48172,0 -0.39965,1.04148 -0.0755,1.60106 0.92756,1.60106 3.29502,0 0.67504,-3.61156 -4.53402,-6.25 -6.49974,-3.29218 -10.10209,-3.47778 -12.65918,-0.65221 -1.89847,2.09778 -1.89847,2.09778 2.83349,1.38818 4.95385,-0.74288 4.79476,-0.85022 6.31955,4.26403 0.47973,1.60906 0.90239,1.57702 4.63088,-0.35106 z m -63.99346,-6.44914 c 37.64245,-5.39758 85.04906,-24.13074 104.54409,-41.31158 1.23533,-1.08869 2.54516,-1.68033 2.91074,-1.31476 0.36557,0.36558 1.16517,-0.33919 1.77688,-1.56615 0.73247,-1.4692 2.36318,-2.43418 4.77634,-2.82643 3.83663,-0.62363 10.52212,-5.21459 19.78998,-13.58988 3.025,-2.73366 6.41851,-5.61621 7.54114,-6.40565 12.94471,-9.10285 42.0712,-52.12253 51.52511,-76.10233 9.31634,-23.63083 13.32305,-37.99493 17.1082,-61.33302 22.97694,-141.66912 -101.34393,-283.80633 -240.56013,-275.03464 -12.87052,0.81095 -14.7058,2.81439 -2.12524,2.31998 6.81066,-0.26766 7.02399,-0.20185 8.35632,2.57796 1.22303,2.55178 1.52747,2.69241 2.88652,1.33335 1.69485,-1.69485 8.89838,0.0871 10.44079,2.58279 0.4468,0.72294 3.01156,1.22056 6.29082,1.22056 3.04506,0 5.53647,0.34607 5.53647,0.76905 0,0.42298 1.08309,0.49722 2.40686,0.16497 1.32377,-0.33224 3.461,-0.0399 4.74939,0.6496 2.10576,1.12697 10.25164,3.14111 18.34375,4.53566 1.65,0.28435 3.9,0.9039 5,1.37677 1.1,0.47286 5.15,1.83892 9,3.03566 93.08102,28.93366 167.32451,135.04362 158.4241,226.42222 -5.08146,52.17017 -22.01918,105.04572 -41.01199,128.02964 -4.05214,4.90365 -4.73451,6.51643 -2.75712,6.51643 0.69104,0 0.4902,0.73458 -0.5,1.82874 -0.91025,1.00581 -1.65499,2.11035 -1.65499,2.45455 0,0.34419 -1.125,1.7508 -2.5,3.1258 -1.375,1.375 -2.5,3.16513 -2.5,3.97807 0,0.81293 -0.7875,1.77022 -1.75,2.12731 -2.76825,1.027 -16.78197,17.10823 -16.45616,18.88401 0.18782,1.02369 -0.413,1.60152 -1.66524,1.60152 -1.07749,0 -3.23471,1.39715 -4.79383,3.10478 C 760.15764,558.87027 758,560.39638 758,558 c 0,-0.55 -0.45,-1 -1,-1 -0.55,0 -1,0.9 -1,2 0,1.1 -0.39752,2 -0.88337,2 -0.48585,0 -1.11559,0.88803 -1.39942,1.97341 -0.32017,1.2243 -3.07656,3.19648 -7.26137,5.19545 -3.82474,1.82698 -6.94963,4.00338 -7.2172,5.02659 -0.25955,0.9925 -1.3788,1.80455 -2.48724,1.80455 -2.06954,0 -8.98203,3.77024 -9.59302,5.23227 -0.18789,0.4496 -1.89116,1.46489 -3.78504,2.25621 -1.89389,0.79131 -4.1348,2.13012 -4.97981,2.97514 -0.84501,0.84501 -2.27323,1.53638 -3.17382,1.53638 -1.55078,0 -16.6206,5.94923 -20.55847,8.11604 -1.01132,0.55647 -3.71132,1.01839 -6,1.02648 -2.28868,0.008 -7.08624,0.84093 -10.66124,1.85075 -3.575,1.00983 -8.75,2.31615 -11.5,2.90294 -2.75,0.58679 -6.08287,1.37107 -7.40637,1.74286 -1.62396,0.45619 -2.1866,0.32038 -1.73045,-0.41769 0.37175,-0.60151 4.15462,-1.83119 8.40637,-2.73262 13.59522,-2.88238 28.99268,-9.25553 50.73045,-20.99779 4.95,-2.67387 10.00899,-5.3407 11.2422,-5.92628 1.23321,-0.58558 2.24571,-1.35943 2.25,-1.71967 0.004,-0.36024 2.06433,-1.86018 4.57786,-3.33321 7.33063,-4.29603 14.77142,-10.22229 16.92994,-13.48394 1.1,-1.66217 2.7769,-3.02341 3.72644,-3.02499 C 763.6909,550.98878 814,486.50117 814,475.66529 c 0,-0.66056 1.04224,-2.76798 2.31608,-4.68316 3.2821,-4.93448 12.30744,-31.78778 14.27817,-42.48213 0.91218,-4.95 2.25489,-11.04308 2.98381,-13.54017 C 846.27341,371.46864 820.80884,267.05511 791.67128,243.12756 790.75208,242.37271 790,241.20109 790,240.52396 790,237.8435 757.83282,205.56118 747.6277,198 c -2.59812,-1.925 -6.01094,-4.51777 -7.58406,-5.76172 -1.57312,-1.24395 -3.91398,-2.83393 -5.20193,-3.5333 C 733.55377,188.00561 729.125,185.23483 725,182.54769 694.30594,162.5527 649.44561,150.37675 610.5,151.4702 c -9.9,0.27796 -20.65916,0.51366 -23.90924,0.52379 -3.25009,0.0101 -7.16529,0.64501 -8.70046,1.41085 -2.03429,1.01484 -2.9232,1.08095 -3.27793,0.2438 -0.31159,-0.73532 -1.09037,-0.42898 -2.1643,0.85136 -1.23173,1.46847 -1.80752,1.65155 -2.16653,0.68887 -0.38964,-1.04481 -0.82713,-1.0051 -2.15376,0.19549 -1.62284,1.46865 -4.42629,1.65047 -5.70665,0.37011 -0.35021,-0.35022 -1.37574,-0.23783 -2.27894,0.24975 -0.90321,0.48758 -3.3422,1.15883 -5.41998,1.49167 -2.07778,0.33284 -3.51373,1.03243 -3.19098,1.55464 0.32274,0.52221 -0.41475,0.94947 -1.63888,0.94947 -1.22413,0 -1.91157,0.31411 -1.52765,0.69803 0.38391,0.38392 -0.32859,1.30545 -1.58334,2.04785 -2.22305,1.31533 -2.20468,1.33733 0.71864,0.86098 7.94956,-1.29536 13.72795,-3.03732 14.20577,-4.28249 0.37953,-0.98904 0.88404,-1.07976 1.79594,-0.32295 1.30989,1.08711 8.61196,-0.17415 13.20498,-2.28086 3.05401,-1.40081 17.89724,-1.62878 29.31109,-0.45018 6.50698,0.67191 12.04282,0.64365 17.5,-0.0894 4.95999,-0.66622 8.10843,-0.71415 8.31555,-0.12659 0.18334,0.52006 1.19584,0.94557 2.25,0.94557 1.05417,0 1.91667,0.50008 1.91667,1.11129 0,0.73424 1.22092,0.88225 3.59843,0.43622 2.43754,-0.45728 3.38634,-0.33188 2.94099,0.38871 -0.3968,0.64203 0.32176,1.06378 1.81244,1.06378 2.51199,0 20.50125,4.41508 24.14814,5.92665 1.1,0.45593 6.5,2.29835 12,4.09427 77.37038,25.26381 136.79291,98.24485 145.6006,178.82246 2.88984,26.43779 -2.6377,87.06074 -8.35715,91.65662 -0.68446,0.55 -2.53767,5.05 -4.11824,10 -2.52679,7.91332 -6.76405,17.98694 -9.46417,22.5 -0.49359,0.825 -3.21038,6.225 -6.03732,12 -21.81174,44.55803 -76.45573,87.55593 -129.62372,101.99745 -4.4,1.19513 -10.25,2.79803 -13,3.562 -41.35413,11.48845 -132.73572,-5.42264 -156.70529,-28.99991 -1.26209,-1.24143 -3.52652,-2.55734 -5.03206,-2.92422 -1.50554,-0.36689 -3.452,-1.75777 -4.32547,-3.09085 -0.91935,-1.4031 -2.188,-2.19358 -3.01265,-1.87714 C 485.55602,554.00061 485,553.58674 485,552.60699 485,551.72314 484.35962,551 483.57692,551 c -0.78269,0 -2.7726,-1.34953 -4.42202,-2.99895 -1.64942,-1.64942 -5.13011,-4.6257 -7.73487,-6.61395 -12.93338,-9.87227 -40.02679,-40.87487 -46.06701,-52.7138 -0.89046,-1.74531 -3.64314,-6.52528 -6.11706,-10.62214 C 381.82217,416.09317 386.2724,321.50305 429.68291,256 c 15.82167,-23.87365 47.44186,-55.63253 63.99695,-64.27764 1.87227,-0.97771 3.65837,-2.44021 3.96912,-3.25 0.31075,-0.8098 1.42126,-1.47236 2.4678,-1.47236 1.04654,0 2.6734,-0.9 3.61525,-2 0.94185,-1.1 2.19773,-2 2.79085,-2 2.0259,0 6.4615,-2.49778 6.46932,-3.64301 0.008,-1.23165 2.24375,-2.35699 4.68186,-2.35699 0.83076,0 2.64682,-0.89384 4.03567,-1.98631 3.14673,-2.47522 0.6395,-4.07374 -3.18184,-2.02862 -1.28545,0.68796 -2.83094,0.94567 -3.43441,0.5727 -0.62381,-0.38553 -1.49165,0.3593 -2.01138,1.72629 -0.99205,2.6093 -5.66528,3.13669 -8.3142,0.93828 -1.03452,-0.85858 -1.62202,-0.44893 -2.63355,1.83628 -0.71609,1.61776 -1.83502,2.94138 -2.4865,2.94138 -0.65148,0 -3.36276,1.8 -6.02506,4 -2.66231,2.2 -5.3621,4 -5.99954,4 -0.63744,0 -2.78413,1.10431 -4.77042,2.45403 -1.98628,1.34972 -3.8185,2.24696 -4.07159,1.99387 -0.25309,-0.25309 -1.27715,0.4426 -2.27569,1.54597 -0.99854,1.10337 -2.59403,2.00613 -3.54553,2.00613 -0.9515,0 -2.49176,1.16259 -3.42279,2.58353 -0.93104,1.42093 -3.24167,3.23068 -5.13474,4.02166 -2.99811,1.25269 -9.75713,5.79143 -14.38225,9.6578 -0.81387,0.68036 -1.82637,1.12451 -2.25,0.98701 -0.42363,-0.1375 -0.77024,0.21583 -0.77024,0.78518 0,0.69941 -0.65336,0.68552 -2.01427,-0.0428 -1.10786,-0.5929 -1.95457,-0.72124 -1.88158,-0.28518 0.40197,2.4017 -0.2787,4.29282 -1.54513,4.29282 -2.08357,0 -3.05356,2.07619 -1.43714,3.07607 1.02155,0.6319 0.55295,1.14028 -1.81109,1.96483 -2.18449,0.76193 -3.00992,1.57957 -2.62012,2.59539 0.36573,0.95308 -0.192,1.68205 -1.56079,2.04 -1.17143,0.30633 -2.12988,0.89411 -2.12988,1.30616 0,0.41205 -3.15,4.27675 -7,8.58821 -3.85,4.31147 -7,8.14785 -7,8.5253 0,0.37745 -1.80786,2.87277 -4.01747,5.54516 -2.20961,2.67238 -4.81419,6.43388 -5.78795,8.35888 -0.97377,1.925 -3.06768,5.525 -4.65314,8 -8.66123,13.5207 -23.64876,57.43489 -26.05801,76.35121 -0.26977,2.11817 -0.76676,4.29821 -1.10441,4.84455 -0.33766,0.54633 -0.75233,3.31328 -0.92151,6.14878 -0.16917,2.83551 -0.82921,7.40546 -1.46676,10.15546 -1.63729,7.06232 -1.34849,25.62778 0.53669,34.5 2.09457,9.8577 3.34775,19.76127 2.77682,21.9445 -0.86553,3.30982 8.61211,37.26775 10.7744,38.60411 0.50674,0.31318 0.92302,1.55537 0.92508,2.76041 0.002,1.20504 0.90205,3.66436 2,5.46515 1.09794,1.80079 1.99626,3.91936 1.99626,4.70792 0,4.5188 17.89176,35.18667 28.59725,49.01791 8.43733,10.90083 38.66501,40.27461 47.61544,46.27034 37.49862,25.11967 65.9686,36.44149 110.78731,44.05746 10.94799,1.86038 47.66153,1.35035 63.20197,-0.878 z M 607,569.60714 c 4.49603,-1.36129 4.49981,-1.36634 4.27952,-5.73481 -0.12127,-2.40478 0.0287,-3.80983 0.33333,-3.12233 0.8686,1.96049 3.38715,1.46201 3.38715,-0.67041 0,-1.64516 -0.96743,-2.00607 -6.75,-2.51815 -12.00678,-1.06326 -24.69331,-2.7819 -27,-3.65768 -3.47168,-1.31809 -2.66559,-2.71544 1.5,-2.60024 8.31854,0.23006 32.80818,-2.07867 31.88129,-3.00556 -0.74984,-0.74984 -8.65418,-2.44018 -11.13129,-2.38042 -6.58822,0.15893 -10.02588,-0.12862 -11.59827,-0.97013 -1.06744,-0.57128 -2.0066,-0.58674 -2.34537,-0.0386 -0.33208,0.53732 -1.69693,0.55608 -3.31068,0.0455 -1.51013,-0.47778 -7.02068,-1.62198 -12.24568,-2.54266 -10.37869,-1.82879 -23.98033,-6.25227 -37.69259,-12.25826 -4.84408,-2.12171 -11.84925,-4.86233 -15.56706,-6.09026 -5.68516,-1.87772 -7.91053,-3.3544 -14,-9.28985 -7.5296,-7.33917 -8.03332,-10.75431 -0.71928,-4.87659 4.51876,3.63137 8.04723,5.13453 11.79403,5.02436 1.51491,-0.0445 2.03125,-0.31314 1.1849,-0.61638 -0.825,-0.29559 -4.2,-3.13443 -7.5,-6.30855 -3.3,-3.17412 -7.59532,-6.50428 -9.54516,-7.40036 -11.09923,-5.10084 -38.1747,-36.92796 -48.5716,-57.09576 -13.4058,-26.00444 -16.11983,-35.76048 -18.36045,-66 -1.62023,-21.86663 -2.32334,-24.11776 -5.23165,-16.75 -1.48026,3.75 -1.48026,3.75 -2.27278,-4.20914 -1.54583,-15.52436 0.44067,-28.98179 8.56763,-58.04086 4.54245,-16.24215 4.5923,-16.86992 1.45304,-18.30026 C 434.17511,278.66703 434,278.68519 434,280.56675 c 0,0.86172 -2.1375,4.04261 -4.75,7.06866 -2.6125,3.02605 -4.7617,5.80851 -4.77599,6.18325 -0.0143,0.37474 -0.75494,1.80634 -1.64588,3.18134 -0.89093,1.375 -1.955,3.6163 -2.3646,4.98066 -0.4096,1.36436 -1.56589,3.61436 -2.56954,5 -1.00365,1.38564 -2.29867,4.68532 -2.87782,7.33264 -0.57916,2.64731 -1.66925,5.79731 -2.42244,7 -0.75318,1.20268 -1.89721,5.3367 -2.54228,9.1867 -0.64506,3.85 -1.60351,9.20642 -2.12989,11.90316 -5.1665,26.46913 -3.32981,59.22259 4.67463,83.36178 1.8721,5.64572 3.40381,10.94217 3.40381,11.76988 0,0.82771 1.125,3.28704 2.5,5.46518 1.375,2.17814 2.51022,4.5317 2.52271,5.23013 0.0125,0.69843 1.57356,4.14789 3.46903,7.66548 1.89547,3.51758 3.22664,6.75105 2.95814,7.18549 -0.2685,0.43443 0.49861,2.50641 1.70469,4.60439 1.20607,2.09798 4.11809,7.65143 6.47115,12.34101 4.30954,8.58876 19.10108,27.58219 24.54115,31.51262 1.49271,1.07848 6.90332,5.71087 12.02358,10.2942 7.73129,6.92056 19.1404,15.46139 29.30955,21.94106 17.43022,11.10633 47.2741,21.74288 70.5,25.12664 4.125,0.60097 8.625,1.25781 10,1.45965 6.31765,0.92735 20.90011,0.48782 25,-0.75353 z M 433.66865,412.19036 c -3.37881,-10.83904 -5.94769,-24.82595 -5.15328,-28.05836 0.84555,-3.4405 1.18608,-2.54289 2.41588,6.368 0.60724,4.4 2.24429,12.65551 3.63789,18.34557 3.22138,13.15294 2.72811,14.98515 -0.90049,3.34479 z m 108.27122,84.23719 c -0.92613,-1.11592 -0.60989,-1.60251 1.58342,-2.4364 2.5086,-0.95377 2.61039,-1.18803 1.20215,-2.76658 -1.76113,-1.97411 -0.18134,-4.23268 3.67901,-5.25973 1.65135,-0.43935 0.7381,-1.42408 -5.10073,-5.5 -16.06058,-11.21143 -46.09678,-43.74188 -56.29039,-60.96484 -1.3021,-2.2 -4.3446,-6.15225 -6.76112,-8.78277 -2.41651,-2.63053 -5.28289,-6.79303 -6.36973,-9.25 C 472.79564,399.01025 471.63644,397 471.30647,397 c -0.96516,0 0.55097,14.67495 2.09972,20.32363 2.99787,10.93408 3.03023,11.3813 0.66879,9.24423 C 472.01097,424.69995 472,424.70934 472,428.34501 472,430.35526 471.55,432 471,432 c -0.55,0 -1,-0.43417 -1,-0.96482 0,-1.8661 -3.8658,-3.17737 -6,-2.03518 -4.5488,2.43444 -0.50644,15.25664 7.69884,24.42041 2.91564,3.25623 5.30116,6.36466 5.30116,6.90763 0,7.04017 31.83691,32.79139 42.27271,34.19219 2.87501,0.38592 6.79706,1.3486 8.71568,2.1393 1.91861,0.79069 4.4145,1.20518 5.54643,0.92109 1.13192,-0.2841 3.38715,-0.14486 5.01161,0.30942 3.58715,1.00315 4.95168,0.41507 3.39344,-1.46249 z M 730.23473,325.08794 c 7.72353,-1.66686 14.04925,-6.82277 15.16555,-12.36099 0.30741,-1.52517 1.63405,-4.35522 2.94809,-6.28899 2.19414,-3.22898 2.28425,-3.81884 1.10401,-7.22695 -0.70682,-2.04106 -0.95231,-3.83449 -0.54553,-3.98542 C 749.8697,294.86835 749.01281,289 747.99779,289 c -0.42636,0 -1.05476,-1.49015 -1.39644,-3.31143 -2.10023,-11.19521 -31.18366,-43.91153 -45.14577,-50.78505 -10.6035,-5.22009 -14.9748,-2.76193 -10.54156,5.92794 1.11815,2.19176 2.33053,5.9388 2.69417,8.32677 0.36365,2.38798 1.25108,5.46677 1.97207,6.84177 2.05777,3.92436 4.18667,9.26712 4.78158,12 0.29931,1.375 1.44842,6.1 2.55356,10.5 1.10514,4.4 3.21962,15.99447 4.69883,25.76549 3.6671,24.22321 4.27405,24.78192 22.6205,20.82245 z M 321.54461,289.7969 c 0.37024,-1.6857 1.51428,-4.91711 2.54232,-7.1809 2.31013,-5.08707 2.60382,-9.43416 0.52057,-7.70521 -1.3042,1.08238 -6.6075,16.41886 -6.6075,19.10804 0,2.36331 2.84164,-1.02132 3.54461,-4.22193 z M 493.35699,176.01365 c 0.47134,-0.008 0.61494,-0.6444 0.31911,-1.41533 -0.37798,-0.98502 0.55628,-1.60468 3.14302,-2.08461 2.02448,-0.37561 4.35588,-1.24575 5.18088,-1.93363 0.825,-0.68788 3.075,-1.82022 5,-2.51631 1.925,-0.69608 4.4,-1.66091 5.5,-2.14405 1.1,-0.48315 3.35,-1.38729 5,-2.00922 2.73303,-1.03014 2.82202,-1.19976 1,-1.90605 -1.78037,-0.69015 -1.67056,-0.8517 1,-1.47115 5.52301,-1.28109 8.69603,-2.79411 7.46072,-3.55757 -1.3859,-0.85654 -0.7284,-1.30445 4.28928,-2.92197 2.0625,-0.66487 3.75,-1.56811 3.75,-2.0072 0,-1.86809 -17.93234,5.75396 -21.75,9.24473 -1.2375,1.13153 -2.25,1.6041 -2.25,1.05014 0,-1.57191 -3.15932,-0.90436 -7,1.47908 -1.925,1.19461 -3.98123,2.1737 -4.56939,2.17575 -0.85905,0.003 -10.24798,6.48778 -12.15645,8.39625 -1.1206,1.1206 1.13425,2.7327 3.0887,2.20826 1.17543,-0.3154 2.52278,-0.57961 2.99413,-0.58712 z m 64.10337,-28.36101 c 1.43609,-1.05009 1.5551,-1.52505 0.53943,-2.15277 -0.77715,-0.4803 -1.74654,-0.23917 -2.40149,0.59735 -0.68783,0.87852 -2.49979,1.28679 -4.8483,1.09241 -2.17079,-0.17966 -3.75,0.13618 -3.75,0.75 0,1.53238 8.28301,1.30513 10.46036,-0.28699 z m 16.20286,-47.51718 C 575.1456,101.36573 580,100.4813 580,98.980948 580,98.441427 578.63588,98 576.96862,98 c -1.80973,0 -3.27003,-0.621885 -3.62354,-1.543128 -0.79432,-2.069946 0.39743,-3.114359 1.87159,-1.640205 1.58801,1.588015 2.84262,1.501409 2.20798,-0.152418 -0.28191,-0.734663 -2.06779,-2.077383 -3.96861,-2.983821 -3.88299,-1.851669 -4.64629,-3.752391 -1.20604,-3.003203 1.97057,0.429135 1.83655,0.09999 -1.07923,-2.650312 C 567.63324,82.690129 565,83.132439 565,87.063428 c 0,2.714935 1.98691,3.426738 2.08122,0.745589 0.16228,-4.613646 2.82588,3.395643 2.87368,8.640983 0.0346,3.79437 0.3197,4.6754 1.22131,3.77379 0.8525,-0.852504 1.53694,-0.876814 2.48701,-0.0883 z m 9.81492,-3.235005 c -0.6372,-2.901146 -0.53027,-3.053623 1.67054,-2.382117 1.8435,0.562483 1.48743,-0.04191 -1.64868,-2.798478 -3.3894,-2.979198 -4.10376,-3.264333 -4.67971,-1.867883 -0.37385,0.906413 -0.71135,1.347327 -0.75,0.97981 -0.0387,-0.367516 -0.34343,-1.380016 -0.67728,-2.25 C 576.70503,86.788941 580.42578,86.261868 581.5,88 c 1.13852,1.842168 2.5,1.025281 2.5,-1.5 0,-3.66608 -3.48816,-6.844294 -6.02292,-5.487735 C 576.88969,81.594222 576,82.490412 576,83.003799 c 0,0.513387 -0.675,0.67441 -1.5,0.357827 -2.66265,-1.021755 0.81463,6.192328 6.45336,13.388345 3.14692,4.016039 3.3768,4.029739 2.52478,0.150484 z M 597.25,98.081818 c -0.36437,-1.576723 1.30506,-1.322859 2.75,0.418182 1.94917,2.34861 10.05565,1.017096 8.55827,-1.405716 -0.27376,-0.442954 0.54261,-0.606493 1.81416,-0.363422 1.37516,0.262879 3.03305,-0.279202 4.09172,-1.337872 1.9204,-1.920395 1.99717,-1.87182 5.16857,3.270388 1.86283,3.020462 2.90481,0.516987 1.22901,-2.952855 -2.77733,-5.750624 -3.94862,-10.027523 -2.39249,-8.736055 1.07091,0.888777 1.48958,0.489497 2.02026,-1.926677 C 620.93487,83.020051 621.76461,82 622.96867,82 c 2.2808,0 6.78662,-3.571615 5.78017,-4.581744 -1.25926,-1.263871 -11.44479,-1.7199 -14.51436,-0.64984 -1.78216,0.621263 -3.51311,0.65516 -4.52546,0.08862 -1.58776,-0.888555 -5.36281,0.486024 -6.825,2.485133 -0.33879,0.463194 -1.56506,0.249462 -2.72504,-0.474959 -1.6307,-1.018385 -2.37901,-1.047184 -3.29922,-0.126968 -0.92022,0.920215 -1.43621,0.885505 -2.27496,-0.153032 -0.84821,-1.050244 -1.68355,-0.147317 -3.83009,4.139981 -1.9585,3.911703 -2.31675,5.318724 -1.25,4.909376 1.09946,-0.421903 1.4989,0.14587 1.50894,2.144817 0.008,1.495238 0.26591,3.843615 0.57422,5.218615 0.53617,2.391192 0.49325,2.417154 -0.98613,0.596503 -1.76169,-2.168069 -3.38065,-0.0687 -2.23977,2.904382 0.68325,1.780526 9.30243,1.374137 8.88803,-0.419066 z m -10.28517,-8.6242 c -0.96957,-1.168259 -0.99927,-1.823175 -0.12245,-2.7 C 588.96691,84.633093 588.30511,78 585.96862,78 c -2.24264,0 -4.03342,3.145066 -2.14853,3.773363 C 584.48917,81.99639 585,84.078815 585,86.583333 585,89.990736 585.37075,91 586.62244,91 c 1.34861,0 1.4064,-0.260327 0.34239,-1.542382 z M 724.11331,636.15914 c -2.50614,-3.51955 -2.63944,-4.29827 -0.60197,-3.51641 1.1232,0.43101 1.33638,0.124 0.83006,-1.19543 -0.46763,-1.21865 -0.31325,-1.54793 0.49233,-1.05006 0.68313,0.42219 0.91781,1.74454 0.56153,3.16405 -0.49964,1.99074 -0.23562,2.43871 1.43731,2.43871 1.12717,0 2.32751,0.45 2.66743,1 0.33992,0.55 0.40328,1 0.1408,1 -0.26247,0 -1.13804,0.25358 -1.9457,0.56351 -0.90188,0.34608 -2.28387,-0.58162 -3.58179,-2.40437 z m 60.02036,-37.86497 c -4.20514,-1.7424 -3.5987,-2.70084 0.74977,-1.18496 2.64074,0.92057 3.52295,0.83298 4.9909,-0.49549 C 790.85507,595.72617 792.82274,595 794.24695,595 797.86143,595 800,594.03091 800,592.39301 800,591.62686 800.39375,591 800.875,591 c 0.48125,0 1.15605,-1.40526 1.49956,-3.12281 0.52543,-2.62716 0.86083,-2.92672 2.11317,-1.88737 1.20547,1.00045 1.60588,0.9298 2.10522,-0.37145 0.33914,-0.88379 1.00227,-1.36854 1.47362,-1.07722 0.47136,0.29131 0.42414,1.66819 -0.10492,3.05973 -0.62514,1.64424 -0.61176,3.18437 0.0382,4.39885 1.33274,2.49026 1.26369,3.00027 -0.40624,3.00027 -0.8458,0 -1.22531,-0.69755 -0.95211,-1.75 0.24984,-0.9625 -0.19771,-2.63864 -0.99456,-3.72476 -1.37347,-1.87207 -1.50798,-1.75506 -2.58643,2.25 C 801.98155,595.7822 801.7308,596 798.19664,596 c -2.04945,0 -5.2946,0.83003 -7.21146,1.84451 -3.11456,1.64836 -3.84318,1.69618 -6.85152,0.44966 z M 805,563.20414 c 0,-1.3629 10.19412,-13.34335 10.82068,-12.7168 0.34177,0.34177 -0.0406,1.04005 -0.84964,1.55172 -0.80907,0.51167 -1.09892,0.93721 -0.64412,0.94563 0.45481,0.008 -0.52936,1.3716 -2.18704,3.02928 -1.65769,1.65768 -3.28443,3.86611 -3.61499,4.90762 C 807.93983,562.76495 805,564.66864 805,563.20414 Z m 61.10095,-40.5825 c -0.79596,-0.95908 -0.84483,-2.16508 -0.16066,-3.9646 0.62773,-1.65105 0.63551,-2.80118 0.0215,-3.18066 -0.52898,-0.32693 -0.96179,0.30559 -0.96179,1.40559 0,1.1 -0.45,2.27811 -1,2.61803 -1.54522,0.955 -1.18152,-3.10446 0.39539,-4.41318 0.76747,-0.63694 1.70221,-2.79355 2.07721,-4.79247 1.11069,-5.92045 9.82075,-24.24306 11.83005,-24.88586 1.3175,-0.42148 1.52168,-0.91523 0.75868,-1.8346 -1.48217,-1.7859 -0.20537,-2.64427 2.83713,-1.90737 2.60154,0.6301 2.60154,0.6301 0.13397,-1.40359 C 879.43089,478.11881 880.37313,475 883.62244,475 884.3801,475 885,474.325 885,473.5 c 0,-0.825 -0.5051,-1.5 -1.12244,-1.5 -0.77551,0 -0.73766,-0.46364 0.12244,-1.5 3.77924,-4.55371 8.92861,-0.84374 6.98846,5.03498 -1.05477,3.19598 -0.96373,3.87074 0.78133,5.79124 2.86768,3.15598 3.39869,7.62239 1.26649,10.6527 -0.97564,1.38659 -2.10478,3.64608 -2.50921,5.02108 -0.40443,1.375 -1.47596,3.6065 -2.3812,4.95889 -0.90523,1.3524 -3.22087,5.6274 -5.14587,9.5 -3.46007,6.96078 -3.54168,7.03749 -7.15375,6.72389 -3.17311,-0.27549 -3.89211,0.0863 -5.46561,2.75 -2.02922,3.4352 -2.63271,3.67335 -4.27969,1.68886 z m 20.1976,-91.58116 c -4.82529,-2.94215 -6.97817,-7.63202 -4.67285,-10.17938 0.97411,-1.07638 1.87691,-2.67791 2.00622,-3.55897 0.74145,-5.05179 10.19901,-5.56211 14.9542,-0.80692 8.09239,8.09239 -2.43426,20.55319 -12.28757,14.54527 z m 11.6575,-12.12261 c -1.15172,-2.15201 -5.82935,-4.41331 -6.84474,-3.30894 -0.33622,0.36568 -0.0393,0.86893 0.65973,1.11832 1.67598,0.5979 4.20771,5.57446 4.31053,8.47309 0.0707,1.99155 0.27388,1.85963 1.51685,-0.9846 1.07202,-2.45305 1.16253,-3.79389 0.35763,-5.29787 z M 876.12491,362.5 c -0.14674,-0.55 -0.39545,-5.05 -0.55269,-10 -0.21344,-6.71959 -0.0575,-8.16115 0.61526,-5.68935 0.49562,1.82085 0.74433,6.32085 0.55269,10 -0.19165,3.67914 -0.46851,6.23935 -0.61526,5.68935 z M 830.66244,235.75 c -0.9394,-1.7875 -2.82274,-4.77905 -4.18522,-6.64788 C 823.63618,225.2052 823.00945,221.93303 825.5,224 c 0.825,0.68469 1.5,1.65878 1.5,2.16465 0,0.50587 0.45634,1.46327 1.01408,2.12756 2.09751,2.49816 5.98592,8.83313 5.98592,9.7522 0,1.99557 -1.69562,0.82991 -3.33756,-2.29441 z m -16.48893,-30.6581 c -13.06578,-15.96441 -42.9346,-42.52823 -57.44793,-51.09131 -9.78737,-5.77469 -0.75902,1.82309 10.09974,8.49941 2.27809,1.40064 19.47073,16.74167 26.67468,23.80187 9.20731,9.02358 3.30576,5.06181 -8.5,-5.70614 -5.775,-5.26734 -11.2875,-9.5812 -12.25,-9.58636 -0.9625,-0.005 -1.75,-0.37115 -1.75,-0.81333 0,-1.22609 -12.57481,-10.31951 -21,-15.18606 -12.76586,-7.37381 -16.57283,-12.83326 -4.85119,-6.95694 7.34237,3.6809 7.25714,3.22182 -0.29528,-1.59058 -2.94444,-1.8762 -4.62835,-3.42279 -3.74202,-3.43686 3.45443,-0.0549 25.0051,13.16023 29.93902,18.35893 1.34721,1.4195 2.84006,2.58869 3.31745,2.59819 3.75757,0.0748 40.01128,37.3591 46.9331,48.26728 3.13765,4.94465 1.11621,2.91456 -7.12757,-7.1581 z"
       style="fill:#000000" />
  </g>
</svg>
